<?xml version="1.0" encoding="utf-8"?>
<!-- Generator: Adobe Illustrator 27.5.0, SVG Export Plug-In . SVG Version: 6.00 Build 0)  -->
<svg version="1.1" id="Artwork" xmlns="http://www.w3.org/2000/svg" xmlns:xlink="http://www.w3.org/1999/xlink" x="0px" y="0px"
	 viewBox="0 0 1200 1200" style="enable-background:new 0 0 1200 1200;" xml:space="preserve">
<g>
	<rect style="fill:#FFFFFF;" width="1200" height="1200"/>
</g>
<polygon style="fill:#FFFFFF;stroke:#000000;stroke-width:18.75;stroke-linecap:round;stroke-linejoin:round;stroke-miterlimit:10;" points="
	800,300 900,300 950,400 850,400 "/>
<polygon style="fill:#FFFFFF;stroke:#000000;stroke-width:18.75;stroke-linecap:round;stroke-linejoin:round;stroke-miterlimit:10;" points="
	250,800 350,800 400,900 300,900 "/>
<polygon style="fill:#FFFFFF;stroke:#000000;stroke-width:6.25;stroke-linecap:round;stroke-linejoin:round;stroke-miterlimit:10;" points="
	200,200 650,200 600,250 600,600 200,600 "/>
<g>
	
		<line style="fill:none;stroke:#000000;stroke-width:6.25;stroke-linecap:round;stroke-linejoin:round;stroke-miterlimit:10;" x1="212.5" y1="600" x2="212.5" y2="200"/>
	
		<line style="fill:none;stroke:#000000;stroke-width:6.25;stroke-linecap:round;stroke-linejoin:round;stroke-miterlimit:10;" x1="225" y1="600" x2="225" y2="200"/>
	
		<line style="fill:none;stroke:#000000;stroke-width:6.25;stroke-linecap:round;stroke-linejoin:round;stroke-miterlimit:10;" x1="237.5" y1="600" x2="237.5" y2="200"/>
	
		<line style="fill:none;stroke:#000000;stroke-width:6.25;stroke-linecap:round;stroke-linejoin:round;stroke-miterlimit:10;" x1="250" y1="525" x2="250" y2="200"/>
	
		<line style="fill:none;stroke:#000000;stroke-width:6.25;stroke-linecap:round;stroke-linejoin:round;stroke-miterlimit:10;" x1="262.5" y1="600" x2="262.5" y2="200"/>
	
		<line style="fill:none;stroke:#000000;stroke-width:6.25;stroke-linecap:round;stroke-linejoin:round;stroke-miterlimit:10;" x1="275" y1="600" x2="275" y2="200"/>
	
		<line style="fill:none;stroke:#000000;stroke-width:6.25;stroke-linecap:round;stroke-linejoin:round;stroke-miterlimit:10;" x1="287.5" y1="600" x2="287.5" y2="250"/>
	
		<line style="fill:none;stroke:#000000;stroke-width:6.25;stroke-linecap:round;stroke-linejoin:round;stroke-miterlimit:10;" x1="300" y1="600" x2="300" y2="200"/>
	
		<line style="fill:none;stroke:#000000;stroke-width:6.25;stroke-linecap:round;stroke-linejoin:round;stroke-miterlimit:10;" x1="312.5" y1="600" x2="312.5" y2="200"/>
	
		<line style="fill:none;stroke:#000000;stroke-width:6.25;stroke-linecap:round;stroke-linejoin:round;stroke-miterlimit:10;" x1="325" y1="600" x2="325" y2="200"/>
	
		<line style="fill:none;stroke:#000000;stroke-width:6.25;stroke-linecap:round;stroke-linejoin:round;stroke-miterlimit:10;" x1="337.5" y1="600" x2="337.5" y2="200"/>
	
		<line style="fill:none;stroke:#000000;stroke-width:6.25;stroke-linecap:round;stroke-linejoin:round;stroke-miterlimit:10;" x1="350" y1="600" x2="350" y2="200"/>
	
		<line style="fill:none;stroke:#000000;stroke-width:6.25;stroke-linecap:round;stroke-linejoin:round;stroke-miterlimit:10;" x1="362.5" y1="600" x2="362.5" y2="200"/>
	
		<line style="fill:none;stroke:#000000;stroke-width:6.25;stroke-linecap:round;stroke-linejoin:round;stroke-miterlimit:10;" x1="375" y1="600" x2="375" y2="200"/>
	
		<line style="fill:none;stroke:#000000;stroke-width:6.25;stroke-linecap:round;stroke-linejoin:round;stroke-miterlimit:10;" x1="387.5" y1="600" x2="387.5" y2="200"/>
	
		<line style="fill:none;stroke:#000000;stroke-width:6.25;stroke-linecap:round;stroke-linejoin:round;stroke-miterlimit:10;" x1="400" y1="600" x2="400" y2="200"/>
	
		<line style="fill:none;stroke:#000000;stroke-width:6.25;stroke-linecap:round;stroke-linejoin:round;stroke-miterlimit:10;" x1="412.5" y1="600" x2="412.5" y2="200"/>
	
		<line style="fill:none;stroke:#000000;stroke-width:6.25;stroke-linecap:round;stroke-linejoin:round;stroke-miterlimit:10;" x1="425" y1="600" x2="425" y2="200"/>
	
		<line style="fill:none;stroke:#000000;stroke-width:6.25;stroke-linecap:round;stroke-linejoin:round;stroke-miterlimit:10;" x1="437.5" y1="600" x2="437.5" y2="200"/>
	
		<line style="fill:none;stroke:#000000;stroke-width:6.25;stroke-linecap:round;stroke-linejoin:round;stroke-miterlimit:10;" x1="450" y1="600" x2="450" y2="200"/>
	
		<line style="fill:none;stroke:#000000;stroke-width:6.25;stroke-linecap:round;stroke-linejoin:round;stroke-miterlimit:10;" x1="462.5" y1="600" x2="462.5" y2="200"/>
	
		<line style="fill:none;stroke:#000000;stroke-width:6.25;stroke-linecap:round;stroke-linejoin:round;stroke-miterlimit:10;" x1="475" y1="600" x2="475" y2="200"/>
	
		<line style="fill:none;stroke:#000000;stroke-width:6.25;stroke-linecap:round;stroke-linejoin:round;stroke-miterlimit:10;" x1="487.5" y1="600" x2="487.5" y2="200"/>
	
		<line style="fill:none;stroke:#000000;stroke-width:6.25;stroke-linecap:round;stroke-linejoin:round;stroke-miterlimit:10;" x1="500" y1="600" x2="500" y2="200"/>
	
		<line style="fill:none;stroke:#000000;stroke-width:6.25;stroke-linecap:round;stroke-linejoin:round;stroke-miterlimit:10;" x1="512.5" y1="550" x2="512.5" y2="200"/>
	
		<line style="fill:none;stroke:#000000;stroke-width:6.25;stroke-linecap:round;stroke-linejoin:round;stroke-miterlimit:10;" x1="525" y1="600" x2="525" y2="200"/>
	
		<line style="fill:none;stroke:#000000;stroke-width:6.25;stroke-linecap:round;stroke-linejoin:round;stroke-miterlimit:10;" x1="537.5" y1="600" x2="537.5" y2="200"/>
	
		<line style="fill:none;stroke:#000000;stroke-width:6.25;stroke-linecap:round;stroke-linejoin:round;stroke-miterlimit:10;" x1="550" y1="600" x2="550" y2="200"/>
	
		<line style="fill:none;stroke:#000000;stroke-width:6.25;stroke-linecap:round;stroke-linejoin:round;stroke-miterlimit:10;" x1="562.5" y1="225" x2="562.5" y2="200"/>
	
		<line style="fill:none;stroke:#000000;stroke-width:6.25;stroke-linecap:round;stroke-linejoin:round;stroke-miterlimit:10;" x1="562.5" y1="600" x2="562.5" y2="275"/>
	
		<line style="fill:none;stroke:#000000;stroke-width:6.25;stroke-linecap:round;stroke-linejoin:round;stroke-miterlimit:10;" x1="575" y1="600" x2="575" y2="200"/>
	
		<line style="fill:none;stroke:#000000;stroke-width:6.25;stroke-linecap:round;stroke-linejoin:round;stroke-miterlimit:10;" x1="587.5" y1="600" x2="587.5" y2="200"/>
	
		<line style="fill:none;stroke:#000000;stroke-width:6.25;stroke-linecap:round;stroke-linejoin:round;stroke-miterlimit:10;" x1="600" y1="250" x2="600" y2="200"/>
	
		<line style="fill:none;stroke:#000000;stroke-width:6.25;stroke-linecap:round;stroke-linejoin:round;stroke-miterlimit:10;" x1="612.5" y1="237.5" x2="612.5" y2="200"/>
	
		<line style="fill:none;stroke:#000000;stroke-width:6.25;stroke-linecap:round;stroke-linejoin:round;stroke-miterlimit:10;" x1="625" y1="225" x2="625" y2="200"/>
	
		<line style="fill:none;stroke:#000000;stroke-width:6.25;stroke-linecap:round;stroke-linejoin:round;stroke-miterlimit:10;" x1="562.5" y1="237.5" x2="562.5" y2="262.5"/>
	
		<line style="fill:none;stroke:#000000;stroke-width:6.25;stroke-linecap:round;stroke-linejoin:round;stroke-miterlimit:10;" x1="250" y1="537.5" x2="250" y2="550"/>
	
		<line style="fill:none;stroke:#000000;stroke-width:6.25;stroke-linecap:round;stroke-linejoin:round;stroke-miterlimit:10;" x1="287.5" y1="200" x2="287.5" y2="237.5"/>
	
		<line style="fill:none;stroke:#000000;stroke-width:6.25;stroke-linecap:round;stroke-linejoin:round;stroke-miterlimit:10;" x1="512.5" y1="600" x2="512.5" y2="562.5"/>
	
		<line style="fill:none;stroke:#000000;stroke-width:6.25;stroke-linecap:round;stroke-linejoin:round;stroke-miterlimit:10;" x1="250" y1="600" x2="250" y2="562.5"/>
</g>
<polygon style="fill:#FFFFFF;stroke:#000000;stroke-width:6.25;stroke-linecap:round;stroke-linejoin:round;stroke-miterlimit:10;" points="
	800,1000 600,1000 600,900 850,900 "/>
<rect x="600" y="400" style="fill:#FFFFFF;stroke:#000000;stroke-width:6.25;stroke-linecap:round;stroke-linejoin:round;stroke-miterlimit:10;" width="400" height="200"/>
<rect x="900" y="400" style="fill:#FFFFFF;stroke:#000000;stroke-width:6.25;stroke-linecap:round;stroke-linejoin:round;stroke-miterlimit:10;" width="100" height="200"/>
<rect x="900" y="500" style="fill:#FFFFFF;stroke:#000000;stroke-width:6.25;stroke-linecap:round;stroke-linejoin:round;stroke-miterlimit:10;" width="100" height="100"/>
<polygon style="fill:#FFFFFF;stroke:#000000;stroke-width:6.25;stroke-linecap:round;stroke-linejoin:round;stroke-miterlimit:10;" points="
	600,400 600,250 650,200 750,200 850,400 "/>
<polygon style="fill:#FFFFFF;stroke:#000000;stroke-width:6.25;stroke-linecap:round;stroke-linejoin:round;stroke-miterlimit:10;" points="
	200,800 600,800 600,650 625,650 650,600 200,600 "/>
<polygon style="fill:#FFFFFF;stroke:#000000;stroke-width:6.25;stroke-linecap:round;stroke-linejoin:round;stroke-miterlimit:10;" points="
	350,800 450,1000 600,1000 600,900 850,900 1000,600 650,600 625,650 600,650 600,800 "/>
<g>
	<g>
		
			<line style="fill:none;stroke:#000000;stroke-width:6.25;stroke-linecap:round;stroke-linejoin:round;" x1="900" y1="500" x2="900" y2="500"/>
		
			<line style="fill:none;stroke:#000000;stroke-width:6.25;stroke-linecap:round;stroke-linejoin:round;stroke-dasharray:0,9.375;" x1="890.625" y1="500" x2="792.188" y2="500"/>
		
			<line style="fill:none;stroke:#000000;stroke-width:6.25;stroke-linecap:round;stroke-linejoin:round;" x1="787.5" y1="500" x2="787.5" y2="500"/>
	</g>
</g>
<g>
	<g>
		
			<line style="fill:none;stroke:#000000;stroke-width:6.25;stroke-linecap:round;stroke-linejoin:round;" x1="712.5" y1="500" x2="712.5" y2="500"/>
		
			<line style="fill:none;stroke:#000000;stroke-width:6.25;stroke-linecap:round;stroke-linejoin:round;stroke-dasharray:0,9.375;" x1="703.125" y1="500" x2="604.688" y2="500"/>
		
			<line style="fill:none;stroke:#000000;stroke-width:6.25;stroke-linecap:round;stroke-linejoin:round;" x1="600" y1="500" x2="600" y2="500"/>
	</g>
</g>
<g>
	<g>
		
			<line style="fill:none;stroke:#000000;stroke-width:6.25;stroke-linecap:round;stroke-linejoin:round;" x1="600" y1="800" x2="600" y2="800"/>
		
			<line style="fill:none;stroke:#000000;stroke-width:6.25;stroke-linecap:round;stroke-linejoin:round;stroke-dasharray:0,9.0909;" x1="600" y1="809.091" x2="600" y2="895.454"/>
		
			<line style="fill:none;stroke:#000000;stroke-width:6.25;stroke-linecap:round;stroke-linejoin:round;" x1="600" y1="900" x2="600" y2="900"/>
	</g>
</g>
<g>
	<g>
		
			<line style="fill:none;stroke:#000000;stroke-width:6.25;stroke-linecap:round;stroke-linejoin:round;" x1="625" y1="650" x2="625" y2="650"/>
		
			<line style="fill:none;stroke:#000000;stroke-width:6.25;stroke-linecap:round;stroke-linejoin:round;stroke-dasharray:0,9.2592;" x1="625" y1="659.259" x2="625" y2="895.371"/>
		
			<line style="fill:none;stroke:#000000;stroke-width:6.25;stroke-linecap:round;stroke-linejoin:round;" x1="625" y1="900" x2="625" y2="900"/>
	</g>
</g>
<g>
	<g>
		
			<line style="fill:none;stroke:#000000;stroke-width:6.25;stroke-linecap:round;stroke-linejoin:round;" x1="300" y1="784.375" x2="300" y2="784.375"/>
		
			<line style="fill:none;stroke:#000000;stroke-width:6.25;stroke-linecap:round;stroke-linejoin:round;stroke-dasharray:0,9.2188;" x1="300" y1="775.156" x2="300" y2="604.609"/>
		
			<line style="fill:none;stroke:#000000;stroke-width:6.25;stroke-linecap:round;stroke-linejoin:round;" x1="300" y1="600" x2="300" y2="600"/>
	</g>
</g>
<g>
	<g>
		
			<line style="fill:none;stroke:#000000;stroke-width:6.25;stroke-linecap:round;stroke-linejoin:round;" x1="600" y1="650" x2="600" y2="650"/>
		
			<line style="fill:none;stroke:#000000;stroke-width:6.25;stroke-linecap:round;stroke-linejoin:round;stroke-dasharray:0,9.375;" x1="590.625" y1="650" x2="314.063" y2="650"/>
		
			<line style="fill:none;stroke:#000000;stroke-width:6.25;stroke-linecap:round;stroke-linejoin:round;" x1="309.375" y1="650" x2="309.375" y2="650"/>
	</g>
</g>
<g>
	<g>
		
			<line style="fill:none;stroke:#000000;stroke-width:6.25;stroke-linecap:round;stroke-linejoin:round;" x1="950" y1="400" x2="950" y2="400"/>
		
			<line style="fill:none;stroke:#000000;stroke-width:6.25;stroke-linecap:round;stroke-linejoin:round;stroke-dasharray:0,9.7222;" x1="950" y1="409.722" x2="950" y2="482.639"/>
		
			<line style="fill:none;stroke:#000000;stroke-width:6.25;stroke-linecap:round;stroke-linejoin:round;" x1="950" y1="487.5" x2="950" y2="487.5"/>
	</g>
</g>
<g>
	<g>
		
			<line style="fill:none;stroke:#000000;stroke-width:6.25;stroke-linecap:round;stroke-linejoin:round;" x1="950" y1="512.5" x2="950" y2="512.5"/>
		
			<line style="fill:none;stroke:#000000;stroke-width:6.25;stroke-linecap:round;stroke-linejoin:round;stroke-dasharray:0,9.7222;" x1="950" y1="522.222" x2="950" y2="595.139"/>
		
			<line style="fill:none;stroke:#000000;stroke-width:6.25;stroke-linecap:round;stroke-linejoin:round;" x1="950" y1="600" x2="950" y2="600"/>
	</g>
</g>
<g>
	<g>
		
			<line style="fill:none;stroke:#000000;stroke-width:6.25;stroke-linecap:round;stroke-linejoin:round;" x1="600" y1="950" x2="606.25" y2="950"/>
		
			<line style="fill:none;stroke:#000000;stroke-width:6.25;stroke-linecap:round;stroke-linejoin:round;stroke-dasharray:12.5,12.5;" x1="618.75" y1="950" x2="812.5" y2="950"/>
		
			<line style="fill:none;stroke:#000000;stroke-width:6.25;stroke-linecap:round;stroke-linejoin:round;" x1="818.75" y1="950" x2="825" y2="950"/>
	</g>
</g>
<g>
	<g style="opacity:0;">
		<rect x="975" y="375" style="fill:#FFFFFF;" width="50" height="50"/>
	</g>
	<g>
		<circle cx="1000" cy="400" r="9.375"/>
	</g>
</g>
<g>
	<g style="opacity:0;">
		<rect x="975" y="475" style="fill:#FFFFFF;" width="50" height="50"/>
	</g>
	<g>
		<circle cx="1000" cy="500" r="9.375"/>
	</g>
</g>
<g>
	<g style="opacity:0;">
		<rect x="975" y="575" style="fill:#FFFFFF;" width="50" height="50"/>
	</g>
	<g>
		<circle cx="1000" cy="600" r="9.375"/>
	</g>
</g>
<g>
	<g style="opacity:0;">
		<rect x="825" y="875" style="fill:#FFFFFF;" width="50" height="50"/>
	</g>
	<g>
		<circle cx="850" cy="900" r="9.375"/>
	</g>
</g>
<g>
	<g style="opacity:0;">
		<rect x="775" y="975" style="fill:#FFFFFF;" width="50" height="50"/>
	</g>
	<g>
		<circle cx="800" cy="1000" r="9.375"/>
	</g>
</g>
<g>
	<g style="opacity:0;">
		<rect x="575" y="975" style="fill:#FFFFFF;" width="50" height="50"/>
	</g>
	<g>
		<circle cx="600" cy="1000" r="9.375"/>
	</g>
</g>
<g>
	<g style="opacity:0;">
		<rect x="175" y="775" style="fill:#FFFFFF;" width="50" height="50"/>
	</g>
	<g>
		<circle cx="200" cy="800" r="9.375"/>
	</g>
</g>
<g>
	<g style="opacity:0;">
		<rect x="175" y="575" style="fill:#FFFFFF;" width="50" height="50"/>
	</g>
	<g>
		<circle cx="200" cy="600" r="9.375"/>
	</g>
</g>
<g>
	<g style="opacity:0;">
		<rect x="175" y="175" style="fill:#FFFFFF;" width="50" height="50"/>
	</g>
	<g>
		<circle cx="200" cy="200" r="9.375"/>
	</g>
</g>
<g>
	<g style="opacity:0;">
		<rect x="625" y="175" style="fill:#FFFFFF;" width="50" height="50"/>
	</g>
	<g>
		<circle cx="650" cy="200" r="9.375"/>
	</g>
</g>
<g>
	<g style="opacity:0;">
		<rect x="875" y="375" style="fill:#FFFFFF;" width="50" height="50"/>
	</g>
	<g>
		<circle cx="900" cy="400" r="9.375"/>
	</g>
</g>
<g>
	<g style="opacity:0;">
		<rect x="875" y="475" style="fill:#FFFFFF;" width="50" height="50"/>
	</g>
	<g>
		<circle cx="900" cy="500" r="9.375"/>
	</g>
</g>
<g>
	<g style="opacity:0;">
		<rect x="875" y="575" style="fill:#FFFFFF;" width="50" height="50"/>
	</g>
	<g>
		<circle cx="900" cy="600" r="9.375"/>
	</g>
</g>
<g>
	<g style="opacity:0;">
		<rect x="575" y="375" style="fill:#FFFFFF;" width="50" height="50"/>
	</g>
	<g>
		<circle cx="600" cy="400" r="9.375"/>
	</g>
</g>
<g>
	<g style="opacity:0;">
		<rect x="575" y="575" style="fill:#FFFFFF;" width="50" height="50"/>
	</g>
	<g>
		<circle cx="600" cy="600" r="9.375"/>
	</g>
</g>
<g>
	<g style="opacity:0;">
		<rect x="625" y="575" style="fill:#FFFFFF;" width="50" height="50"/>
	</g>
	<g>
		<circle cx="650" cy="600" r="9.375"/>
	</g>
</g>
<g>
	<g style="opacity:0;">
		<rect x="275" y="775" style="fill:#FFFFFF;" width="50" height="50"/>
	</g>
	<g>
		<circle cx="300" cy="800" r="9.375"/>
	</g>
</g>
<g>
	<g style="opacity:0;">
		<rect x="575" y="875" style="fill:#FFFFFF;" width="50" height="50"/>
	</g>
	<g>
		<circle cx="600" cy="900" r="9.375"/>
	</g>
</g>
<circle cx="750" cy="500" r="25"/>
<polygon style="fill:none;stroke:#000000;stroke-width:18.75;stroke-linecap:round;stroke-linejoin:round;stroke-miterlimit:10;" points="
	200,800 200,200 750,200 850,400 1000,400 1000,600 800,1000 450,1000 350,800 "/>
<circle style="fill:#FFFFFF;stroke:#000000;stroke-width:6.25;stroke-linecap:round;stroke-linejoin:round;stroke-miterlimit:10;" cx="400" cy="400" r="162.5"/>
<g>
	<circle style="fill:#FFFFFF;stroke:#000000;stroke-width:37.5;stroke-miterlimit:10;" cx="400" cy="400" r="125"/>
	<g>
		<line style="fill:none;stroke:#000000;stroke-width:25;stroke-miterlimit:10;" x1="400" y1="350" x2="400" y2="450"/>
		<line style="fill:none;stroke:#000000;stroke-width:25;stroke-miterlimit:10;" x1="350" y1="400" x2="450" y2="400"/>
	</g>
</g>
<polygon style="stroke:#000000;stroke-width:6.25;stroke-linecap:round;stroke-linejoin:round;stroke-miterlimit:10;" points="
	975,650 956.25,687.5 650,687.5 650,650 "/>
<polygon style="stroke:#000000;stroke-width:6.25;stroke-linecap:round;stroke-linejoin:round;stroke-miterlimit:10;" points="
	918.75,762.5 900,800 650,800 650,762.5 "/>
<polygon style="stroke:#000000;stroke-width:6.25;stroke-linecap:round;stroke-linejoin:round;stroke-miterlimit:10;" points="
	946.875,706.25 928.125,743.75 650,743.75 650,706.25 "/>
<g>
	<line style="fill:none;stroke:#FFFFFF;stroke-width:6.25;stroke-miterlimit:10;" x1="750" y1="487.5" x2="750" y2="512.5"/>
	<line style="fill:none;stroke:#FFFFFF;stroke-width:6.25;stroke-miterlimit:10;" x1="737.5" y1="500" x2="762.5" y2="500"/>
</g>
<path d="M750,456.25c19.781,0,36.531,13.188,41.938,31.25h12.875c-5.688-25.031-28.125-43.75-54.813-43.75
	s-49.125,18.719-54.813,43.75h12.875C713.469,469.438,730.219,456.25,750,456.25z M750,543.75c-19.781,0-36.531-13.188-41.938-31.25
	h-12.875c5.688,25.031,28.125,43.75,54.813,43.75s49.125-18.719,54.813-43.75h-12.875C786.531,530.563,769.781,543.75,750,543.75z"
	/>
<g>
	
		<line style="fill:none;stroke:#000000;stroke-width:6.25;stroke-linecap:round;stroke-linejoin:round;stroke-miterlimit:10;" x1="259.375" y1="806.25" x2="346.875" y2="806.25"/>
	
		<line style="fill:none;stroke:#000000;stroke-width:6.25;stroke-linecap:round;stroke-linejoin:round;stroke-miterlimit:10;" x1="265.625" y1="818.75" x2="353.125" y2="818.75"/>
	
		<line style="fill:none;stroke:#000000;stroke-width:6.25;stroke-linecap:round;stroke-linejoin:round;stroke-miterlimit:10;" x1="271.875" y1="831.25" x2="309.375" y2="831.25"/>
	
		<line style="fill:none;stroke:#000000;stroke-width:6.25;stroke-linecap:round;stroke-linejoin:round;stroke-miterlimit:10;" x1="278.125" y1="843.75" x2="365.625" y2="843.75"/>
	
		<line style="fill:none;stroke:#000000;stroke-width:6.25;stroke-linecap:round;stroke-linejoin:round;stroke-miterlimit:10;" x1="284.375" y1="856.25" x2="371.875" y2="856.25"/>
	
		<line style="fill:none;stroke:#000000;stroke-width:6.25;stroke-linecap:round;stroke-linejoin:round;stroke-miterlimit:10;" x1="290.625" y1="868.75" x2="378.125" y2="868.75"/>
	
		<line style="fill:none;stroke:#000000;stroke-width:6.25;stroke-linecap:round;stroke-linejoin:round;stroke-miterlimit:10;" x1="296.875" y1="881.25" x2="384.375" y2="881.25"/>
	
		<line style="fill:none;stroke:#000000;stroke-width:6.25;stroke-linecap:round;stroke-linejoin:round;stroke-miterlimit:10;" x1="359.375" y1="831.25" x2="321.875" y2="831.25"/>
</g>
<g>
	
		<line style="fill:none;stroke:#000000;stroke-width:6.25;stroke-linecap:round;stroke-linejoin:round;stroke-miterlimit:10;" x1="809.375" y1="318.75" x2="909.375" y2="318.75"/>
	
		<line style="fill:none;stroke:#000000;stroke-width:6.25;stroke-linecap:round;stroke-linejoin:round;stroke-miterlimit:10;" x1="821.875" y1="343.75" x2="846.875" y2="343.75"/>
	
		<line style="fill:none;stroke:#000000;stroke-width:6.25;stroke-linecap:round;stroke-linejoin:round;stroke-miterlimit:10;" x1="934.375" y1="368.75" x2="909.375" y2="368.75"/>
	
		<line style="fill:none;stroke:#000000;stroke-width:6.25;stroke-linecap:round;stroke-linejoin:round;stroke-miterlimit:10;" x1="809.375" y1="306.25" x2="896.875" y2="306.25"/>
	
		<line style="fill:none;stroke:#000000;stroke-width:6.25;stroke-linecap:round;stroke-linejoin:round;stroke-miterlimit:10;" x1="909.375" y1="331.25" x2="821.875" y2="331.25"/>
	
		<line style="fill:none;stroke:#000000;stroke-width:6.25;stroke-linecap:round;stroke-linejoin:round;stroke-miterlimit:10;" x1="834.375" y1="356.25" x2="921.875" y2="356.25"/>
	
		<line style="fill:none;stroke:#000000;stroke-width:6.25;stroke-linecap:round;stroke-linejoin:round;stroke-miterlimit:10;" x1="934.375" y1="381.25" x2="846.875" y2="381.25"/>
	
		<line style="fill:none;stroke:#000000;stroke-width:6.25;stroke-linecap:round;stroke-linejoin:round;stroke-miterlimit:10;" x1="859.375" y1="343.75" x2="884.375" y2="343.75"/>
	
		<line style="fill:none;stroke:#000000;stroke-width:6.25;stroke-linecap:round;stroke-linejoin:round;stroke-miterlimit:10;" x1="834.375" y1="368.75" x2="896.875" y2="368.75"/>
	
		<line style="fill:none;stroke:#000000;stroke-width:6.25;stroke-linecap:round;stroke-linejoin:round;stroke-miterlimit:10;" x1="921.875" y1="343.75" x2="896.875" y2="343.75"/>
</g>
<rect x="587.5" y="706.25" style="stroke:#000000;stroke-width:6.25;stroke-linecap:round;stroke-linejoin:round;stroke-miterlimit:10;" width="12.5" height="37.5"/>
<polyline style="fill:none;stroke:#000000;stroke-width:6.25;stroke-linecap:round;stroke-linejoin:round;stroke-miterlimit:10;" points="
	412.5,800 425,825 537.5,825 550,800 "/>
<g>
	<rect x="825" y="375" style="opacity:0;fill:none;" width="50" height="50"/>
	<circle cx="850" cy="400" r="14.063"/>
	<circle style="fill:#FFFFFF;" cx="850" cy="400" r="4.688"/>
</g>
<g>
	<rect x="975" y="375" style="opacity:0;fill:none;" width="50" height="50"/>
	<circle cx="1000" cy="400" r="14.063"/>
	<circle style="fill:#FFFFFF;" cx="1000" cy="400" r="4.688"/>
</g>
<g>
	<rect x="975" y="575" style="opacity:0;fill:none;" width="50" height="50"/>
	<circle cx="1000" cy="600" r="14.063"/>
	<circle style="fill:#FFFFFF;" cx="1000" cy="600" r="4.688"/>
</g>
<g>
	<rect x="775" y="975" style="opacity:0;fill:none;" width="50" height="50"/>
	<circle cx="800" cy="1000" r="14.063"/>
	<circle style="fill:#FFFFFF;" cx="800" cy="1000" r="4.688"/>
</g>
<g>
	<rect x="425" y="975" style="opacity:0;fill:none;" width="50" height="50"/>
	<circle cx="450" cy="1000" r="14.063"/>
	<circle style="fill:#FFFFFF;" cx="450" cy="1000" r="4.688"/>
</g>
<g>
	<rect x="325" y="775" style="opacity:0;fill:none;" width="50" height="50"/>
	<circle cx="350" cy="800" r="14.063"/>
	<circle style="fill:#FFFFFF;" cx="350" cy="800" r="4.688"/>
</g>
<g>
	<rect x="175" y="775" style="opacity:0;fill:none;" width="50" height="50"/>
	<circle cx="200" cy="800" r="14.063"/>
	<circle style="fill:#FFFFFF;" cx="200" cy="800" r="4.688"/>
</g>
<g>
	<rect x="175" y="175" style="opacity:0;fill:none;" width="50" height="50"/>
	<circle cx="200" cy="200" r="14.063"/>
	<circle style="fill:#FFFFFF;" cx="200" cy="200" r="4.688"/>
</g>
<g>
	<rect x="725" y="175" style="opacity:0;fill:none;" width="50" height="50"/>
	<circle cx="750" cy="200" r="14.063"/>
	<circle style="fill:#FFFFFF;" cx="750" cy="200" r="4.688"/>
</g>
<g>
	<g style="opacity:0;">
		<rect x="737.5" y="412.5" style="fill:#FFFFFF;" width="25" height="25"/>
	</g>
	<g>
		<circle cx="750" cy="425" r="4.688"/>
	</g>
</g>
</svg>
